# xmcd CD database file
#
# Track frame offsets:
#	150
#	38288
#	71301
#	103448
#	131494
#	148226
#	171893
#
# Disc length: 2629 seconds
#
# Revision: 0
# Processed by: cddbd v1.5.2PL0 Copyright (c) Steve Scherf et al.
# Submitted via: CDex 1.50
#
DISCID=5f0a4307
DTITLE=Charlier/Sourisse - Multiquarium Big Band_CD2_Sourisse, Charlier, Guillaume, Couderc, Egéa, Drevet, Leloup, Havet, Perchaud, Charbonnel
DYEAR=2016
DGENRE=Jazz
TTITLE0=1. Aboriginal Reel (invités - Alex Sipiagin, Richard Poher)
TTITLE1=2. Gravé dans la cire
TTITLE2=3. Deeps
TTITLE3=4. Flying Fox (invités - Philip Catherine, Perico Sambeat)
TTITLE4=5. Worksong
TTITLE5=6. Meeting at Douglaston (invité: Jerry Bergonzi)
TTITLE6=7. Chance Dance
EXTD=YEAR: 2016
EXTT0=
EXTT1=
EXTT2=
EXTT3=
EXTT4=
EXTT5=
EXTT6=
PLAYORDER=
